Patient4_TMGait_0pt3_03_left_01_GRF.mot
version=1
nRows=45
nColumns=19
inDegrees=no
endheader
time	F1x	F1y	F1z	M1x	M1y	M1z	F2x	F2y	F2z	M2x	M2y	M2z	EC1x	EC1y	EC1z	EC2x	EC2y	EC2z
0.9	-1.3021	5.4935	1.6546	-1.6348	-1.4819	1.0302	-30.7219	865.8122	-33.6244	325.5214	48.1233	892.4131	-0.0592	0.0182	-0.0073	-0.0462	0.0165	0.9585
0.91786	-0.95816	4.2018	1.1869	-1.2807	-1.1071	1.2815	-30.9356	879.7541	-34.2721	330.6433	48.6721	905.6813	-0.0592	0.0182	-0.0073	-0.0462	0.0165	0.9585
0.93571	-0.65981	3.1245	0.7971	-0.98891	-0.79553	1.5148	-30.9322	892.8752	-34.7958	335.3675	48.9135	917.3604	-0.0592	0.0182	-0.0073	-0.0462	0.0165	0.9585
0.95357	-0.42959	2.3217	0.50242	-0.7744	-0.56251	1.7192	-30.5481	902.722	-35.1151	338.7746	48.7032	924.9646	-0.0592	0.0182	-0.0073	-0.0462	0.0165	0.9585
0.97143	-0.2719	1.7803	0.297	-0.63113	-0.40311	1.8838	-29.6471	907.0665	-35.1796	340.038	47.9447	926.3568	-0.0592	0.0182	-0.0073	-0.0462	0.0165	0.9585
0.98929	-0.18159	1.4474	0.16441	-0.54114	-0.30432	1.9915	-28.1614	904.3737	-34.9641	338.5937	46.6016	920.1717	-0.0592	0.0182	-0.0073	-0.0462	0.0165	0.9585
1.0071	-0.14868	1.243	0.085993	-0.47966	-0.25201	2.0195	-26.0871	894.0656	-34.4782	334.2355	44.7055	906.0349	-0.0592	0.0182	-0.0073	-0.0462	0.0165	0.9585
1.025	-0.15922	1.0785	0.048276	-0.42023	-0.23438	1.9384	-23.455	876.5437	-33.7852	327.1213	42.3596	884.5421	-0.0592	0.0182	-0.0073	-0.0462	0.0165	0.9585
1.0429	-0.19935	0.86663	0.040313	-0.33652	-0.2419	1.707	-20.3184	853.0089	-33.0014	317.7066	39.7294	857.0501	-0.0592	0.0182	-0.0073	-0.0462	0.0165	0.9585
1.0607	-0.25829	0.52322	0.051686	-0.2018	-0.26303	1.279	-16.7537	825.1703	-32.2733	306.6387	37.0201	825.3645	-0.0592	0.0182	-0.0073	-0.0462	0.0165	0.9585
1.0786	-0.3295	-0.02293	0.074339	0.0067441	-0.28785	0.60685	-12.8422	794.9691	-31.7412	294.6595	34.4318	791.4515	-0.0592	0.0182	-0.0073	-0.0462	0.0165	0.9585
1.0964	-0.39673	-0.82032	0.099093	0.30468	-0.30285	-0.34486	-8.6604	764.3586	-31.5088	282.5267	32.1168	757.2294	-0.0592	0.0182	-0.0073	-0.0462	0.0165	0.9585
1.1143	-0.4341	-1.875	0.11307	0.69324	-0.29191	-1.5713	-4.2851	735.1953	-31.6131	270.9735	30.1579	724.4721	-0.0592	0.0182	-0.0073	-0.0462	0.0165	0.9585
1.1321	-0.41166	-3.1203	0.10019	1.1488	-0.23402	-2.9961	0.2146	709.2076	-32.0144	260.6934	28.5531	694.7873	-0.0592	0.0182	-0.0073	-0.0462	0.0165	0.9585
1.15	-0.28981	-4.376	0.043895	1.6068	-0.10267	-4.4272	4.7991	687.9852	-32.6186	252.3307	27.2275	669.6071	-0.0592	0.0182	-0.0073	-0.0462	0.0165	0.9585
1.1679	-0.017444	-5.3058	-0.067511	1.944	0.1292	-5.4975	9.4661	672.9189	-33.3109	246.4503	26.0617	650.1469	-0.0592	0.0182	-0.0073	-0.0462	0.0165	0.9585
1.1857	0.46163	-5.3699	-0.23766	1.9613	0.48742	-5.6173	14.2368	665.0328	-33.9726	243.4676	24.9174	637.274	-0.0592	0.0182	-0.0073	-0.0462	0.0165	0.9585
1.2036	1.199	-3.7952	-0.45927	1.3725	0.98912	-3.9498	19.1346	664.7608	-34.5049	243.5585	23.6713	631.3304	-0.0592	0.0182	-0.0073	-0.0462	0.0165	0.9585
1.2214	2.219	0.42506	-0.71086	-0.1919	1.6238	0.59202	24.1434	671.6984	-34.8628	246.5604	22.2623	631.9348	-0.0592	0.0182	-0.0073	-0.0462	0.0165	0.9585
1.2393	3.4907	8.4679	-0.95324	-3.1604	2.3384	9.2811	29.1449	684.4149	-35.0739	251.8983	20.7284	637.838	-0.0592	0.0182	-0.0073	-0.0462	0.0165	0.9585
1.2571	4.8964	21.5155	-1.1173	-7.9601	3.0122	23.397	33.8769	700.4291	-35.2267	258.5746	19.2137	646.9235	-0.0592	0.0182	-0.0073	-0.0462	0.0165	0.9585
1.275	6.1854	40.4553	-1.0913	-14.9073	3.4292	43.9021	37.9133	716.3146	-35.44	265.217	17.9517	656.3015	-0.0592	0.0182	-0.0073	-0.0462	0.0165	0.9585
1.2929	6.9202	65.3875	-0.71607	-24.0277	3.2551	70.9152	40.718	728.076	-35.8116	270.2373	17.2079	662.6193	-0.0592	0.0182	-0.0073	-0.0462	0.0165	0.9585
1.3107	6.4602	94.9538	0.21591	-34.8106	2.029	102.9823	41.8165	731.9564	-36.338	272.1571	17.1515	662.7281	-0.0592	0.0182	-0.0073	-0.0462	0.0165	0.9585
1.3286	4.4381	125.9966	1.9399	-46.0834	-0.63668	136.7006	41.0168	725.4983	-36.8852	270.0247	17.7491	654.5404	-0.0592	0.0182	-0.0073	-0.0462	0.0165	0.9585
1.3464	1.5673	154.871	4.5279	-56.5099	-4.5507	168.0599	38.5719	708.3986	-37.2678	263.7337	18.772	637.7231	-0.0592	0.0182	-0.0073	-0.0462	0.0165	0.9585
1.3643	-1.3237	180.0503	7.5485	-65.5529	-8.9346	195.2964	35.1557	682.5551	-37.3662	254.0249	19.8942	613.7461	-0.0592	0.0182	-0.0073	-0.0462	0.0165	0.9585
1.3821	-3.8482	202.4424	10.5685	-73.5669	-13.173	219.3536	31.6144	651.0804	-37.1524	242.1054	20.7988	585.0854	-0.0592	0.0182	-0.0073	-0.0462	0.0165	0.9585
1.4	-5.9564	223.7952	13.3206	-81.2083	-16.9548	242.1473	28.6311	617.0417	-36.6109	229.1721	21.2364	554.2073	-0.0592	0.0182	-0.0073	-0.0462	0.0165	0.9585
1.4179	-7.7372	245.449	15.6559	-88.9735	-20.153	265.1498	26.5356	582.6681	-35.7235	216.107	21.0848	522.9243	-0.0592	0.0182	-0.0073	-0.0462	0.0165	0.9585
1.4357	-9.2888	268.0177	17.5455	-97.0763	-22.7756	289.0449	25.3162	549.2256	-34.5045	203.4197	20.3691	492.2938	-0.0592	0.0182	-0.0073	-0.0462	0.0165	0.9585
1.4536	-10.6502	291.5945	19.0742	-105.5268	-24.9315	313.9591	24.7371	517.247	-33.0248	191.3336	19.2344	462.8053	-0.0592	0.0182	-0.0073	-0.0462	0.0165	0.9585
1.4714	-11.7832	315.8989	20.3857	-114.194	-26.764	339.5913	24.4698	486.7807	-31.3836	179.8802	17.8802	434.567	-0.0592	0.0182	-0.0073	-0.0462	0.0165	0.9585
1.4893	-12.6557	340.3192	21.6453	-122.8304	-28.4341	365.2513	24.2157	457.5719	-29.6669	168.9705	16.4857	407.4331	-0.0592	0.0182	-0.0073	-0.0462	0.0165	0.9585
1.5071	-13.2648	364.2286	22.9841	-131.1932	-30.0725	390.2038	23.7763	429.2496	-27.9244	158.4684	15.1628	381.1438	-0.0592	0.0182	-0.0073	-0.0462	0.0165	0.9585
1.525	-13.5742	387.3705	24.4455	-139.1877	-31.7068	414.0842	23.0758	401.4936	-26.1743	148.2526	13.9506	355.47	-0.0592	0.0182	-0.0073	-0.0462	0.0165	0.9585
1.5429	-13.5115	409.8452	25.9978	-146.8617	-33.2787	436.9052	22.1427	374.1043	-24.4266	138.2408	12.8426	330.2736	-0.0592	0.0182	-0.0073	-0.0462	0.0165	0.9585
1.5607	-13.0266	431.8416	27.6239	-154.2994	-34.7561	458.8031	21.0581	346.9793	-22.6944	128.3806	11.8124	305.4876	-0.0592	0.0182	-0.0073	-0.0462	0.0165	0.9585
1.5786	-12.1224	453.5201	29.3488	-161.5716	-36.1707	479.9322	19.8991	320.0548	-20.9916	118.628	10.8356	281.069	-0.0592	0.0182	-0.0073	-0.0462	0.0165	0.9585
1.5964	-10.8478	474.9963	31.1935	-168.7354	-37.5667	500.439	18.6957	293.268	-19.3275	108.9377	9.9042	256.9651	-0.0592	0.0182	-0.0073	-0.0462	0.0165	0.9585
1.6143	-9.2693	496.3151	33.1379	-175.8275	-38.951	520.4224	17.4273	266.5803	-17.7006	99.2755	9.0252	233.1361	-0.0592	0.0182	-0.0073	-0.0462	0.0165	0.9585
1.6321	-7.4605	517.4517	35.1266	-182.8633	-40.293	539.9305	16.0438	240.0109	-16.101	89.6313	8.209	209.5848	-0.0592	0.0182	-0.0073	-0.0462	0.0165	0.9585
1.65	-5.4977	538.336	37.0976	-189.8422	-41.5518	558.9746	14.4953	213.6605	-14.5272	80.03	7.4703	186.3819	-0.0592	0.0182	-0.0073	-0.0462	0.0165	0.9585
1.6679	-3.4542	558.8874	38.9971	-196.7581	-42.6959	577.5534	12.7562	187.7298	-12.9926	70.5373	6.8265	163.6813	-0.0592	0.0182	-0.0073	-0.0462	0.0165	0.9585
1.6857	-1.4224	579.0272	40.7849	-203.601	-43.7143	595.6704	10.8337	162.5316	-11.5205	61.2641	6.2925	141.7252	-0.0592	0.0182	-0.0073	-0.0462	0.0165	0.9585
